<svg xmlns="http://www.w3.org/2000/svg" viewBox="0 0 100 120" width="100" height="120">
  <g transform="translate(10, 10)">
    <!-- Top Left Red -->
    <path d="M 0 0 L 30 0 L 30 10 L 10 10 L 10 30 L 0 30 Z" fill="#ed232a"/>
    <!-- Top Right Red -->
    <path d="M 50 0 L 80 0 L 80 30 L 70 30 L 70 10 L 50 10 Z" fill="#ed232a"/>
    <!-- Bottom Left Red -->
    <path d="M 0 50 L 10 50 L 10 70 L 30 70 L 30 80 L 0 80 Z" fill="#ed232a"/>
    <!-- Bottom Right Red -->
    <path d="M 80 50 L 80 80 L 50 80 L 50 70 L 70 70 L 70 50 Z" fill="#ed232a"/>
    <!-- Center Blue Square -->
    <rect x="23" y="23" width="34" height="34" fill="#00358e"/>
  </g>
  <!-- Text Background -->
  <rect x="0" y="95" width="100" height="20" fill="#00358e"/>
  <!-- Text -->
  <text x="50" y="110" font-family="Arial, sans-serif" font-weight="bold" font-size="12" fill="white" text-anchor="middle">HDFC BANK</text>
</svg>
